<mxfile host="app.diagrams.net" modified="2023-10-27T12:59:45.548Z" agent="Mozilla/5.0 (Windows NT 10.0; Win64; x64) AppleWebKit/537.36 (KHTML, like Gecko) Chrome/118.0.0.0 Safari/537.36" version="22.0.8" etag="8NqmrjM8hg_bX3rP-Zpv" type="github">
  <diagram name="Page-1" id="77Dk8m20vRO0ozqzL1HK">
    <mxGraphModel>
      <root>
        <mxCell id="0" />
        <mxCell id="1" parent="0" />
      </root>
    </mxGraphModel>
  </diagram>
</mxfile>
